<?xml version="1.0" standalone="no"?>
<!DOCTYPE svg PUBLIC "-//W3C//DTD SVG 20010904//EN"
 "http://www.w3.org/TR/2001/REC-SVG-20010904/DTD/svg10.dtd">
<svg version="1.0" xmlns="http://www.w3.org/2000/svg"
 width="3000.000000pt" height="4000.000000pt" viewBox="0 0 3000.000000 4000.000000"
 preserveAspectRatio="xMidYMid meet">

<g transform="translate(0.000000,4000.000000) scale(0.100000,-0.100000)"
fill="#000000" stroke="none">
<path d="M0 20000 l0 -20000 15000 0 15000 0 0 20000 0 20000 -15000 0 -15000
0 0 -20000z m25391 12915 c0 -5 -9 -11 -21 -13 -20 -3 -27 8 -13 22 10 9 34 3
34 -9z m-11351 -2180 c7 -8 23 -15 37 -15 20 0 22 -2 11 -13 -7 -8 -24 -19
-37 -26 -20 -11 -21 -15 -10 -26 8 -7 38 -20 67 -30 29 -9 65 -27 80 -40 32
-26 60 -94 44 -104 -14 -8 44 -110 67 -119 30 -11 42 -42 16 -42 -10 0 -3 -12
20 -35 36 -37 38 -43 39 -109 l1 -39 64 -3 c36 -2 70 1 77 6 8 8 14 8 19 0 9
-15 25 -12 25 5 0 22 16 18 43 -9 17 -17 32 -23 46 -19 15 4 29 -2 45 -20 27
-29 42 -97 22 -97 -23 0 -48 -37 -41 -59 3 -12 2 -21 -4 -21 -6 0 -8 -44 -6
-115 4 -127 23 -195 59 -211 14 -6 22 -20 24 -41 2 -18 7 -33 13 -33 5 0 9 -6
9 -13 0 -8 12 -24 26 -38 22 -20 25 -30 20 -62 -5 -29 -1 -47 12 -70 14 -23
19 -48 17 -84 -1 -29 1 -53 5 -53 4 0 5 -13 2 -30 -3 -23 0 -30 12 -30 9 0 16
-4 16 -10 0 -5 10 -10 23 -10 30 0 65 -33 72 -68 3 -15 12 -40 20 -55 8 -16
15 -38 15 -50 0 -12 12 -35 27 -51 15 -16 28 -41 29 -55 1 -14 5 -34 9 -43 4
-11 0 -21 -14 -30 -28 -17 -29 -74 -1 -83 10 -3 30 -30 44 -60 28 -58 56 -78
126 -90 22 -4 42 -11 46 -16 3 -5 22 -9 43 -9 31 0 46 -7 77 -38 22 -22 57
-45 79 -52 47 -16 126 -69 159 -108 40 -48 47 -52 90 -52 41 0 49 -5 92 -50
36 -38 52 -49 68 -44 16 4 17 3 7 -4 -11 -8 -8 -15 16 -39 16 -16 32 -36 36
-46 3 -9 12 -17 20 -17 7 0 29 -18 48 -40 19 -22 48 -56 65 -75 17 -19 34 -47
37 -62 3 -16 22 -45 41 -67 20 -21 36 -44 36 -51 0 -18 32 -43 60 -47 27 -3
42 -38 16 -38 -27 0 -20 -67 9 -102 14 -16 25 -38 25 -48 0 -10 17 -40 38 -67
49 -62 63 -99 67 -170 2 -55 4 -59 50 -99 31 -27 46 -48 42 -57 -3 -9 0 -17 6
-20 17 -6 32 -3 30 6 -6 16 27 6 47 -15 29 -31 26 -52 -5 -45 -18 3 -29 -1
-35 -14 -13 -23 -13 -25 7 -44 9 -10 17 -24 18 -34 1 -9 7 -26 13 -38 7 -12
12 -30 12 -40 0 -27 20 -43 52 -43 29 0 35 -13 19 -39 -6 -10 -2 -23 11 -42
11 -15 18 -34 15 -43 -9 -23 12 -30 32 -12 23 21 26 20 28 -3 2 -25 56 -99 92
-128 l28 -22 22 20 c16 15 21 28 17 47 -11 51 -9 107 3 145 7 21 10 46 6 55
-9 22 -9 137 0 152 4 6 14 9 22 6 22 -9 43 12 43 43 0 15 7 36 15 48 8 12 19
54 25 94 6 40 17 80 25 89 9 10 15 36 15 65 0 36 7 59 25 85 14 20 30 61 35
91 5 30 13 68 17 85 9 33 55 94 72 94 6 0 11 4 11 9 0 5 8 11 18 13 13 4 21
28 36 109 11 62 26 112 36 124 17 19 50 128 50 165 0 24 46 104 76 132 14 13
33 39 44 59 27 51 190 209 215 209 4 0 34 13 66 30 190 96 343 74 489 -70 61
-60 90 -100 72 -100 -4 0 -19 11 -34 25 -15 14 -34 22 -42 19 -8 -3 -24 0 -36
6 -16 9 -25 9 -33 1 -6 -6 -23 -11 -38 -11 -40 0 -167 -57 -225 -101 -82 -60
-163 -174 -236 -329 -11 -24 -38 -70 -59 -101 -22 -31 -39 -63 -39 -70 0 -8
-8 -26 -17 -39 -57 -80 -119 -209 -132 -270 -6 -30 -15 -120 -21 -200 -12
-151 -14 -160 -33 -160 -12 0 -66 -99 -87 -160 -7 -19 -19 -50 -28 -67 -14
-29 -15 -37 -3 -65 8 -18 14 -50 13 -70 -1 -20 3 -40 8 -43 6 -3 10 -17 10
-30 0 -37 34 -120 61 -149 21 -22 63 -108 83 -168 8 -27 38 -23 34 4 -2 14 10
36 35 62 33 37 37 47 37 96 1 30 8 73 16 95 8 22 18 49 21 60 4 11 9 22 13 25
11 9 37 83 45 127 4 29 13 44 25 48 13 4 21 19 25 43 4 20 11 49 17 64 8 22 7
33 -5 51 -15 23 -31 31 -112 57 -56 17 -84 37 -96 67 -12 32 -4 57 26 87 13
13 39 58 58 100 26 54 45 81 66 94 17 9 31 22 31 28 0 6 11 23 25 38 14 15 25
33 25 41 0 7 9 17 20 20 31 10 71 81 76 133 7 83 39 107 112 81 36 -12 53 -35
107 -144 39 -78 56 -94 64 -58 2 10 10 23 19 29 10 7 17 32 19 70 2 33 8 61
13 62 6 2 10 20 10 39 0 50 21 114 39 121 48 18 107 99 98 133 -3 11 1 43 9
72 7 28 14 66 14 83 0 17 7 37 15 44 8 7 15 25 15 41 0 35 15 38 31 7 7 -13
15 -25 19 -28 4 -3 19 -25 33 -50 28 -51 37 -97 41 -220 2 -51 11 -109 23
-145 17 -50 22 -101 29 -315 11 -340 11 -951 0 -1125 -4 -77 -9 -164 -10 -193
-2 -30 -8 -57 -15 -62 -7 -4 -13 -11 -14 -16 -1 -4 -12 -8 -25 -8 -19 -1 -28
-12 -45 -51 -12 -28 -34 -67 -49 -86 -16 -20 -28 -39 -28 -42 0 -4 -18 -24
-40 -46 -22 -21 -40 -45 -40 -53 0 -8 -11 -21 -25 -28 -24 -13 -71 -97 -61
-108 8 -7 58 34 118 97 32 33 76 74 98 92 27 22 44 47 55 79 10 29 23 50 34
53 16 4 19 -4 24 -50 3 -30 1 -80 -4 -112 -5 -32 -9 -80 -8 -107 0 -43 -14
-227 -27 -339 -3 -22 -7 -65 -9 -95 -15 -229 -27 -323 -49 -400 -14 -47 -26
-110 -26 -140 -1 -132 -35 -266 -76 -308 -8 -7 -14 -20 -14 -28 0 -7 -17 -25
-37 -38 -21 -13 -62 -47 -90 -75 -29 -28 -57 -51 -63 -51 -5 0 -25 -11 -45
-24 -20 -14 -57 -32 -83 -42 -26 -9 -58 -30 -72 -46 l-26 -29 -120 -1 -121 0
-66 43 c-50 33 -72 55 -88 89 -12 25 -26 53 -31 62 -4 10 -8 26 -8 36 0 10
-18 55 -40 100 -22 44 -40 90 -40 101 0 12 -2 21 -4 21 -2 0 -11 3 -19 6 -22
8 -45 -35 -26 -47 8 -5 9 -9 3 -9 -6 0 -11 -16 -12 -36 -1 -20 -7 -43 -14 -52
-9 -10 -14 -54 -15 -130 -2 -68 -7 -120 -14 -128 -6 -8 -9 -26 -5 -42 17 -73
32 -121 45 -136 9 -11 11 -29 7 -58 -5 -29 -1 -56 11 -90 17 -47 18 -48 60
-48 32 0 46 -5 55 -19 9 -15 19 -18 40 -14 21 4 28 2 28 -10 0 -8 -9 -17 -20
-20 -17 -4 -19 -9 -10 -32 11 -28 -1 -65 -21 -65 -6 0 3 -13 20 -29 17 -16 31
-37 31 -46 0 -9 11 -30 25 -47 30 -35 32 -58 6 -58 -28 0 -45 -24 -27 -39 13
-11 13 -17 0 -46 -18 -45 -18 -90 1 -109 9 -8 16 -28 16 -43 -1 -108 -4 -143
-11 -143 -18 0 -21 -41 -6 -65 9 -13 16 -40 16 -60 0 -21 5 -35 12 -35 7 0 2
-7 -10 -16 -12 -8 -22 -21 -22 -29 0 -7 -12 -23 -27 -35 -22 -17 -27 -30 -29
-75 -3 -43 0 -55 11 -55 8 0 15 -6 16 -12 0 -7 2 -29 4 -48 2 -19 0 -56 -4
-82 -6 -35 -5 -48 4 -48 20 0 14 -49 -7 -64 -12 -9 -16 -16 -9 -21 16 -9 13
-61 -3 -74 -10 -8 -30 -10 -61 -5 -36 5 -48 12 -55 29 -5 13 -18 26 -29 30
-11 3 -20 12 -18 18 3 15 -49 12 -79 -3 -15 -9 -19 -19 -16 -41 3 -24 1 -29
-16 -29 -30 0 -48 -26 -31 -46 12 -14 8 -21 -25 -49 -26 -21 -37 -38 -33 -48
3 -9 1 -17 -5 -19 -6 -2 -13 -27 -16 -56 -3 -35 -9 -52 -18 -52 -22 0 -16 -14
16 -35 16 -11 30 -23 30 -28 0 -13 -64 -47 -90 -47 -26 0 -50 -16 -50 -33 0
-5 7 -3 16 4 14 11 18 10 30 -6 8 -10 14 -29 14 -42 0 -18 -6 -23 -25 -23 -14
0 -33 -7 -42 -15 -40 -35 -81 -65 -90 -65 -5 0 -17 -16 -27 -37 -13 -28 -14
-38 -5 -44 17 -10 -4 -59 -25 -59 -17 0 -56 -51 -56 -74 0 -8 7 -19 16 -24 13
-7 13 -10 1 -20 -15 -13 -47 -6 -47 9 0 5 -11 9 -25 9 -21 0 -26 -6 -31 -40
-6 -34 -10 -40 -30 -40 -23 0 -24 -3 -23 -64 1 -74 -4 -86 -34 -86 -18 0 -19
-2 -7 -10 14 -9 7 -14 -14 -11 -18 3 -37 -23 -32 -44 4 -16 -1 -25 -19 -35
-14 -7 -25 -19 -25 -25 0 -7 -12 -18 -27 -25 -26 -12 -27 -13 -8 -20 16 -6 11
-9 -25 -16 -39 -8 -45 -13 -48 -37 -2 -15 -8 -27 -13 -27 -5 0 -9 -6 -9 -14 0
-8 -17 -28 -37 -45 l-36 -30 13 -41 c12 -37 12 -43 -7 -68 -13 -17 -31 -28
-49 -29 -16 -1 -48 -5 -71 -9 -45 -6 -44 -5 -48 -74 -1 -17 -9 -38 -18 -48
-10 -10 -17 -27 -17 -37 0 -21 -37 -65 -56 -65 -6 0 -17 -7 -24 -15 -11 -13
-10 -14 3 -9 14 5 14 2 4 -20 -11 -25 -16 -26 -89 -26 -63 0 -78 -3 -78 -15 0
-8 -8 -15 -17 -15 -10 0 -35 -18 -56 -40 -24 -26 -46 -40 -62 -40 -23 0 -25
-3 -25 -50 0 -43 -3 -50 -20 -50 -19 0 -31 -26 -34 -72 -1 -10 -12 -24 -26
-31 -30 -15 -37 -48 -16 -70 21 -21 20 -47 -2 -47 -24 0 -44 -35 -36 -64 3
-15 1 -27 -8 -33 -25 -15 -78 -90 -78 -110 0 -10 -4 -23 -9 -29 -5 -5 -11 -18
-14 -29 -5 -19 -5 -19 -12 3 -11 34 -36 29 -29 -7 5 -21 1 -32 -13 -42 -11 -8
-33 -34 -49 -59 -15 -25 -39 -56 -51 -69 -13 -13 -23 -34 -23 -47 0 -12 -4
-26 -10 -29 -5 -3 -10 -15 -10 -26 0 -10 -4 -19 -9 -19 -5 0 -12 -15 -16 -32
-12 -60 -16 -67 -38 -70 -17 -2 -22 -9 -20 -31 1 -15 -3 -27 -9 -27 -6 0 -3
-9 7 -20 15 -17 16 -22 4 -36 -7 -9 -18 -26 -24 -38 -11 -22 -41 -26 -82 -12
-18 6 -23 4 -23 -9 0 -10 -18 -24 -45 -36 -32 -14 -45 -26 -45 -41 0 -11 -13
-37 -30 -58 -16 -21 -30 -43 -30 -48 0 -16 -22 -26 -52 -24 -15 1 -28 -1 -28
-6 0 -5 -15 -14 -34 -22 -18 -7 -44 -26 -57 -42 -13 -16 -39 -45 -56 -63 -18
-18 -33 -39 -33 -47 0 -15 -52 -58 -69 -58 -5 0 -23 -12 -40 -26 -17 -14 -31
-21 -31 -15 0 20 -35 46 -57 43 -19 -3 -23 -10 -23 -39 0 -49 -42 -89 -104
-98 -60 -9 -91 10 -107 67 -7 24 -16 47 -21 52 -4 6 -8 28 -8 50 0 28 -8 50
-24 71 -23 28 -28 30 -88 28 -72 -2 -106 -2 -163 0 -37 2 -40 0 -43 -25 -2
-16 -9 -28 -18 -28 -8 0 -14 -7 -14 -15 0 -8 -9 -19 -19 -25 -26 -13 -31 -13
-31 5 0 20 -19 19 -27 0 -3 -9 -28 -28 -56 -43 -72 -39 -87 -48 -100 -61 -12
-12 -13 -16 -16 -46 0 -8 -10 -15 -21 -15 -11 0 -20 -4 -20 -9 0 -5 -9 -13
-20 -16 -11 -4 -18 -10 -15 -15 3 -4 -1 -13 -8 -19 -22 -17 -138 -43 -168 -37
-16 3 -29 1 -29 -4 0 -6 -10 -11 -22 -11 l-23 -2 23 -4 c37 -7 25 -23 -17 -23
-28 0 -41 5 -43 15 -2 13 -11 10 -43 -14 -37 -27 -44 -29 -88 -20 -26 4 -54 6
-62 3 -19 -8 -15 -51 6 -65 12 -8 11 -12 -5 -24 -11 -8 -26 -15 -33 -15 -7 0
-13 -5 -13 -11 0 -6 -18 -10 -42 -9 -88 4 -97 2 -91 -20 5 -18 0 -20 -51 -20
-49 0 -56 -2 -56 -20 0 -11 -5 -20 -11 -20 -13 0 -69 -58 -69 -71 0 -5 -4 -9
-10 -9 -5 0 -10 -9 -10 -20 0 -18 -5 -20 -43 -16 -62 6 -97 -3 -97 -25 0 -16
-8 -19 -54 -19 -30 0 -58 -4 -61 -10 -3 -5 -16 -10 -27 -10 -22 0 -89 21 -98
30 -30 31 -154 53 -162 30 -3 -10 -64 13 -78 29 -10 12 -50 31 -64 31 -8 0
-17 7 -20 16 -4 11 -13 14 -27 11 -12 -3 -41 4 -68 18 -25 13 -54 27 -63 29
-10 3 -18 15 -18 26 0 11 -5 20 -12 20 -6 0 -26 11 -44 25 -18 14 -38 25 -44
25 -6 0 -30 15 -53 33 -23 18 -66 44 -94 57 -33 16 -52 31 -50 40 1 9 -18 25
-48 40 -55 27 -149 114 -159 147 -4 12 -13 24 -21 27 -8 3 -15 14 -15 24 0 12
-14 25 -41 37 -47 21 -119 88 -119 110 0 8 -6 15 -13 15 -28 0 -49 164 -25
188 9 9 8 16 -3 29 -23 29 -18 75 11 90 18 9 26 9 31 1 5 -8 16 -8 39 2 21 9
34 10 38 3 18 -27 123 -52 149 -35 6 4 13 30 15 57 l3 50 33 -34 c25 -26 36
-31 42 -22 6 10 9 10 15 1 10 -17 131 -2 180 23 26 13 40 16 43 8 5 -14 23
-14 57 -1 23 9 25 13 15 25 -11 13 -7 15 24 15 20 0 60 12 88 26 37 19 53 23
58 14 5 -8 10 -9 14 -2 3 6 2 13 -4 17 -5 3 -10 10 -10 14 0 9 79 44 136 60
25 7 61 30 94 61 29 27 55 50 57 50 3 0 24 16 47 35 24 19 47 35 53 35 5 0 27
13 49 30 21 16 46 30 55 30 9 0 22 7 29 15 14 17 97 58 120 59 8 1 44 15 80
32 69 32 122 50 182 59 21 3 44 12 52 20 8 8 20 15 27 15 16 0 133 37 174 54
17 8 57 21 90 31 33 10 77 26 99 37 22 11 68 22 105 24 36 3 80 9 96 14 17 5
55 12 85 16 30 3 72 10 93 16 35 8 38 12 33 34 -4 13 -2 24 3 24 5 0 15 15 21
34 6 19 25 52 42 73 16 21 34 48 39 60 4 12 31 34 59 48 31 16 55 36 63 53 6
15 17 30 23 34 7 5 17 30 24 58 14 56 43 100 68 100 13 0 17 9 17 40 0 37 -2
40 -27 40 -18 0 -29 7 -33 21 -4 11 -18 25 -31 31 -15 7 -24 20 -24 33 0 18
-8 25 -40 33 -22 5 -40 6 -40 2 0 -5 -13 -8 -28 -8 -36 1 -82 -29 -82 -53 0
-28 -50 -76 -103 -99 -26 -12 -51 -30 -57 -40 -6 -11 -16 -20 -22 -20 -6 0
-26 -16 -45 -35 -45 -47 -108 -78 -140 -70 -19 4 -26 1 -29 -12 -6 -24 -54
-48 -54 -27 0 11 -13 12 -62 7 -52 -5 -68 -12 -95 -38 -18 -18 -33 -38 -33
-45 0 -6 -6 -10 -14 -7 -8 3 -20 0 -26 -8 -6 -8 -17 -12 -25 -9 -16 6 -68 -19
-96 -47 -20 -20 -49 -26 -49 -9 0 5 -7 7 -15 4 -8 -4 -15 -12 -15 -20 0 -8 -6
-15 -12 -15 -7 -1 -23 -3 -36 -4 -12 -1 -31 -10 -42 -20 -15 -13 -55 -22 -148
-33 -80 -10 -130 -20 -135 -29 -5 -8 -26 -13 -52 -13 -26 0 -50 -6 -59 -16
-27 -27 -310 -81 -331 -64 -6 5 -30 4 -55 -1 -25 -6 -66 -7 -92 -4 -30 4 -48
3 -48 -3 0 -6 -9 -8 -21 -5 -11 3 -31 0 -44 -7 -20 -11 -27 -11 -40 0 -8 7
-24 10 -35 7 -11 -3 -20 -1 -20 4 0 13 -78 11 -82 -2 -2 -7 -19 -9 -50 -4 -35
5 -48 12 -51 27 -5 16 -12 19 -31 16 -18 -4 -26 -1 -26 8 0 8 -9 14 -20 14
-11 0 -20 5 -20 10 0 6 -11 10 -25 10 -16 0 -32 11 -47 30 -12 17 -27 30 -33
30 -7 0 -20 9 -30 20 -14 16 -21 17 -32 8 -8 -6 -12 -17 -9 -25 3 -7 -3 -21
-13 -30 -10 -10 -24 -29 -31 -42 -11 -22 -9 -27 26 -58 32 -28 36 -36 24 -43
-8 -5 -22 -7 -31 -5 -8 3 -24 -1 -35 -9 -19 -14 -19 -15 0 -50 35 -66 98 -116
164 -131 18 -3 32 -11 32 -16 0 -19 44 -59 60 -54 11 4 21 -4 29 -22 8 -16 17
-36 22 -45 13 -26 11 -38 -6 -38 -9 0 -24 -14 -33 -30 -9 -17 -25 -33 -34 -36
-10 -3 -25 -12 -33 -21 -15 -14 -15 -13 -9 13 4 16 14 34 23 41 14 11 11 12
-16 13 -22 0 -33 -5 -33 -14 0 -13 -20 -26 -41 -26 -5 0 -9 9 -9 20 0 11 -7
20 -15 20 -8 0 -15 -6 -15 -14 0 -19 -22 -26 -81 -26 -42 0 -49 -3 -49 -20 0
-19 -2 -20 -36 -5 -20 8 -54 15 -74 15 -21 0 -40 5 -42 10 -2 6 -18 -3 -36
-19 -25 -23 -32 -38 -32 -65 0 -32 -3 -36 -25 -36 -15 0 -25 6 -25 14 0 18
-43 33 -48 17 -6 -17 -82 -14 -82 3 0 8 -17 21 -37 29 -36 14 -38 14 -41 -5
-2 -13 -9 -18 -19 -14 -8 3 -25 6 -37 6 -12 0 -35 13 -52 29 -31 30 -46 36
-109 46 -41 6 -95 53 -133 117 -9 15 -24 31 -34 34 -10 3 -18 10 -18 15 0 5
-7 9 -15 9 -8 0 -15 5 -15 10 0 6 -19 10 -42 10 -43 1 -88 26 -88 49 0 6 -11
11 -25 11 -14 0 -25 5 -25 10 0 6 -7 10 -15 10 -8 0 -15 3 -15 8 0 4 -15 15
-32 23 -123 59 -153 77 -175 103 -21 26 -31 29 -69 27 -42 -2 -44 0 -44 25 0
20 -4 25 -17 20 -19 -8 -63 30 -63 54 0 22 -53 60 -83 60 -26 0 -47 34 -47 76
0 26 -51 84 -73 84 -15 0 -47 31 -47 45 0 7 -7 19 -16 26 -9 7 -20 23 -25 36
-5 13 -17 23 -28 23 -10 0 -23 6 -28 13 -13 17 -17 88 -6 96 5 3 8 25 5 49 -4
42 -5 43 -36 36 -17 -3 -35 -10 -41 -15 -19 -18 -27 -8 -21 29 3 20 8 57 12
82 8 56 18 68 39 46 20 -20 29 -20 45 -1 10 12 9 15 -6 15 -18 1 -18 1 0 15
25 19 36 19 36 0 0 -8 5 -15 10 -15 7 0 7 6 0 19 -14 27 -13 41 4 41 17 0 21
5 30 42 5 23 2 30 -20 41 l-27 14 31 14 c17 7 33 20 36 29 3 8 9 21 12 28 3 7
-2 12 -13 12 -14 0 -26 16 -42 51 -13 28 -40 67 -61 87 -20 20 -40 50 -44 65
-4 16 -22 41 -40 57 -18 16 -38 47 -45 70 -10 32 -18 42 -40 46 -27 6 -61 54
-61 87 0 7 -20 21 -45 32 -25 11 -45 25 -45 32 0 16 -30 32 -50 26 -11 -3 -12
-2 -3 4 16 11 -10 53 -32 53 -8 0 -18 8 -24 18 -5 9 -13 17 -18 16 -14 -2 -43
20 -43 33 0 6 -8 18 -19 25 -10 7 -21 23 -25 36 -4 12 -15 22 -24 22 -9 0 -26
7 -36 15 -19 14 -56 87 -56 109 0 15 -36 46 -54 46 -7 0 -19 7 -26 15 -7 8 -9
15 -6 15 6 0 -13 21 -82 92 -15 16 -33 28 -39 28 -7 0 -13 7 -13 16 0 23 -29
69 -77 122 -24 26 -42 51 -42 57 3 28 -14 52 -33 47 -16 -4 -19 -1 -17 19 2
13 -4 35 -14 49 -9 13 -17 31 -17 39 0 8 -7 22 -15 31 -9 9 -22 41 -31 71 -8
30 -21 72 -27 94 -7 23 -20 53 -29 68 -10 14 -18 30 -18 35 0 5 -7 15 -15 22
-7 6 -17 33 -21 58 -3 26 -12 53 -18 61 -6 7 -11 30 -12 50 -2 62 -36 172 -61
203 -8 9 -17 30 -19 47 -3 17 -18 70 -35 118 -16 48 -29 95 -29 105 0 10 -6
29 -14 41 -8 12 -20 60 -26 107 -6 47 -20 110 -30 140 -10 30 -30 104 -44 163
-32 128 -62 209 -82 220 -9 5 -14 20 -13 35 2 15 -2 36 -8 47 -6 11 -8 26 -5
34 2 7 -1 16 -7 20 -7 4 -13 47 -16 104 -2 55 0 95 5 92 5 -3 11 -1 15 5 9 15
25 2 25 -21 0 -12 7 -19 20 -19 22 0 24 12 21 120 -3 64 -2 66 38 108 23 24
41 38 41 32 0 -7 6 -10 13 -7 15 6 67 -24 67 -38 0 -7 11 -18 25 -25 14 -7 25
-17 25 -22 0 -4 9 -8 19 -8 11 0 33 -13 49 -30 17 -16 38 -30 48 -30 10 0 29
-11 43 -23 15 -14 51 -29 86 -37 77 -16 110 -31 93 -41 -10 -6 -10 -13 -2 -26
15 -24 81 -18 151 13 48 21 58 22 91 11 27 -9 38 -18 40 -36 6 -37 56 -101 72
-91 7 5 22 7 33 4 27 -5 48 8 113 71 31 30 63 55 72 55 21 0 52 -29 52 -49 0
-9 10 -25 21 -35 23 -19 19 -20 113 25 34 17 50 20 53 12 2 -7 11 -9 19 -6 8
3 20 0 27 -5 10 -9 11 -30 1 -109 -6 -54 -9 -101 -7 -105 8 -14 69 -8 138 13
48 15 79 33 105 59 l37 37 -46 17 c-25 9 -67 16 -93 16 -46 0 -48 1 -48 30 0
38 37 62 55 36 7 -9 16 -16 20 -16 4 0 14 -8 21 -17 12 -17 13 -17 14 -1 0 9
20 33 45 53 40 33 48 36 85 30 22 -4 42 -11 46 -16 3 -5 14 -9 24 -9 10 0 26
-7 34 -16 24 -24 40 -12 43 31 2 41 -18 75 -44 75 -7 0 -13 6 -13 14 0 28 -96
24 -185 -7 -74 -27 -90 -29 -217 -28 -100 1 -145 6 -167 17 -17 8 -35 13 -41
9 -13 -8 -43 9 -47 26 -1 8 -5 26 -9 41 -5 23 -2 28 20 34 17 4 26 13 27 28 1
11 3 63 4 114 2 64 8 100 19 117 9 13 16 33 16 45 0 11 5 20 11 20 5 0 8 4 5
8 -9 15 30 67 87 116 77 65 89 60 110 -47 43 -217 184 -361 374 -382 76 -9
166 9 196 39 28 28 114 97 148 118 31 19 83 124 97 193 11 55 8 183 -6 257 -5
25 -6 52 -2 58 18 29 164 -36 235 -102 21 -21 47 -38 56 -38 10 0 20 -4 24 -9
3 -5 31 -8 62 -5 43 3 61 0 75 -13 25 -22 23 -32 -9 -44 -31 -11 -73 -69 -73
-100 0 -26 49 -38 62 -15 5 9 15 16 23 16 8 0 22 11 31 25 15 23 23 25 85 25
77 0 109 19 109 65 0 34 26 32 69 -5 40 -36 59 -37 88 -6 18 18 23 36 24 87 1
77 -16 212 -33 254 -7 16 -11 42 -9 57 2 19 -4 30 -19 38 -16 9 -21 18 -17 36
2 14 -1 31 -7 37 -25 27 -47 78 -41 96 4 13 -4 26 -30 45 -19 15 -35 33 -35
40 0 8 -7 19 -15 26 -8 7 -15 21 -15 31 0 30 -38 85 -78 113 -46 31 -72 34
-72 6 0 -21 -15 -27 -25 -10 -4 6 -11 8 -16 4 -6 -3 -18 1 -27 9 -9 8 -33 20
-53 26 -20 6 -45 20 -57 31 -34 32 -115 80 -134 80 -10 0 -26 9 -35 20 -19 22
-65 25 -141 11 -29 -6 -55 -4 -80 4 -32 12 -119 19 -202 17 -126 -3 -271 -13
-298 -21 -18 -5 -40 -7 -48 -4 -8 3 -67 0 -132 -7 -140 -15 -143 -16 -162 -23
-8 -3 -42 -8 -74 -11 -33 -3 -62 -9 -65 -14 -3 -5 -24 -15 -46 -22 -22 -7 -46
-17 -53 -23 -7 -5 -33 -14 -59 -18 -26 -5 -56 -18 -67 -28 -12 -10 -31 -24
-43 -30 -20 -10 -24 -8 -43 29 -20 39 -21 40 -63 34 -26 -5 -53 -18 -71 -36
-20 -19 -40 -28 -61 -28 -26 0 -42 -11 -84 -56 -28 -31 -51 -60 -51 -65 0 -5
-5 -9 -11 -9 -6 0 -24 -11 -41 -25 -16 -14 -35 -25 -43 -25 -7 0 -15 -7 -19
-15 -9 -24 -33 -17 -41 12 -5 22 -1 32 20 50 14 13 34 23 43 24 13 0 12 2 -5
9 -12 5 -34 7 -50 5 -15 -2 -31 -4 -35 -4 -4 -1 -33 -23 -63 -51 -30 -27 -61
-50 -68 -50 -7 0 -27 -16 -44 -35 -35 -39 -68 -45 -108 -19 -22 14 -25 14 -45
-6 -14 -14 -20 -30 -17 -45 4 -23 -30 -65 -52 -65 -5 0 -14 -13 -20 -30 -12
-35 -34 -41 -29 -8 2 16 -5 26 -25 36 -27 13 -28 16 -22 60 4 26 6 83 6 127
-2 65 -6 86 -24 110 -19 25 -23 46 -25 135 -2 58 -8 108 -14 111 -6 4 -5 14 3
27 10 16 10 26 1 46 -7 16 -8 26 -2 26 6 0 10 11 10 25 0 14 -3 24 -7 24 -23
-4 -33 3 -33 24 0 12 -9 37 -20 55 -16 26 -17 32 -5 32 10 0 15 11 15 34 0 19
5 47 10 61 8 21 6 37 -10 72 -11 24 -24 42 -29 39 -5 -3 -7 3 -4 14 3 11 9 20
14 20 13 0 11 34 -2 47 -7 7 -7 22 0 50 11 41 -5 151 -33 217 -7 17 -16 60
-20 95 -5 43 -13 69 -24 77 -13 10 -16 26 -15 76 3 65 -11 119 -31 117 -33 -4
-38 1 -32 32 4 22 1 36 -14 51 -27 29 -36 114 -16 161 8 20 11 37 5 37 -5 0
-9 14 -9 30 0 17 -5 30 -12 30 -39 1 -74 114 -44 139 13 11 16 34 16 116 0 97
-1 104 -26 129 -15 14 -31 26 -35 26 -5 0 -9 14 -9 30 0 19 -5 30 -14 30 -22
0 -38 27 -39 67 0 21 -5 41 -11 46 -7 4 -2 9 12 13 12 4 22 14 22 23 0 22 19
41 42 41 11 0 20 11 26 33 7 29 12 32 50 35 23 2 42 8 42 14 0 23 42 68 65 68
25 0 65 -42 65 -69 0 -9 12 -38 26 -66 17 -32 23 -50 15 -53 -6 -2 -11 -8 -11
-13 0 -6 4 -8 9 -5 5 3 26 -1 46 -10 37 -15 64 -40 86 -77 9 -17 8 -18 -13
-12 -20 7 -21 6 -9 -9 7 -9 20 -16 27 -16 8 0 14 -7 14 -15 0 -8 5 -15 10 -15
6 0 10 -11 10 -25 0 -32 33 -53 90 -58 91 -9 167 -31 282 -81 35 -15 39 -15
92 9 31 14 68 25 81 25 30 0 57 14 106 55 65 55 93 75 105 75 6 0 17 6 23 14
7 8 26 18 42 21 17 4 33 13 35 20 3 7 15 13 27 13 26 0 137 48 137 59 0 9 48
33 67 33 7 0 13 7 13 16 0 30 48 64 91 64 40 0 46 -9 33 -45 -5 -13 -15 -15
-48 -10 -33 5 -45 3 -56 -10 -12 -14 -12 -18 1 -26 18 -11 59 -12 59 -1 0 8
68 42 83 42 4 0 44 24 90 54 98 63 130 83 137 83 15 1 83 34 96 48 9 8 28 15
44 15 16 0 69 21 117 47 48 25 102 53 118 61 17 9 32 18 35 21 11 13 134 71
150 71 9 0 34 8 56 19 21 10 61 26 87 35 27 9 63 28 81 41 18 14 39 25 47 25
19 0 122 50 131 64 6 8 8 8 8 0 0 -14 94 -8 140 9 19 7 53 24 75 37 45 29 78
45 116 59 28 10 45 56 25 65 -6 2 2 5 17 5 46 2 90 26 126 70 23 27 43 41 58
41 13 0 26 6 29 14 9 24 81 56 137 61 29 3 57 11 62 19 6 8 40 28 75 45 36 17
81 40 100 51 19 10 44 19 54 20 11 0 29 9 40 19 38 35 96 61 136 61 26 0 57
10 90 30 28 17 57 30 64 30 8 0 19 7 26 15 7 8 23 15 36 15 12 0 25 4 28 9 7
10 98 41 123 41 10 0 34 10 53 21 23 15 54 22 95 24 105 4 113 5 127 18 20 20
139 97 149 97 5 0 9 3 9 8 0 13 61 42 90 42 21 0 36 10 60 40 18 23 40 40 52
40 21 0 138 105 138 124 0 6 13 25 30 42 16 18 32 44 36 58 3 14 9 26 13 26 4
0 13 11 20 24 7 13 24 29 36 34 27 12 35 1 35 -51 0 -65 8 -76 54 -75 l41 0
-1 117 c0 64 1 119 3 123 6 11 33 -3 33 -16 0 -12 50 -61 54 -54 33 55 64 89
95 103 34 15 43 15 67 3 25 -11 30 -21 34 -61 3 -26 8 -47 13 -47 4 0 16 0 27
0 13 0 20 7 20 20 0 10 12 32 28 47 22 23 36 28 80 29 57 2 88 18 63 33 -7 5
-11 13 -7 19 3 6 1 12 -6 14 -6 2 -8 10 -4 16 13 22 26 13 26 -18 0 -28 2 -30
38 -30 20 0 46 7 56 15 17 13 18 15 3 15 -9 0 -17 5 -17 11 0 7 7 8 18 4 42
-18 62 -18 62 1 1 27 51 90 95 120 32 21 47 25 99 22 57 -3 61 -2 64 20 3 23
34 41 78 46 11 2 28 7 38 13 12 6 32 7 60 0 57 -13 233 -17 262 -7 13 5 24 16
24 25 0 19 24 19 40 0z m-1290 -205 c0 -5 -8 -10 -17 -10 -15 0 -16 2 -3 10
19 12 20 12 20 0z m520 0 c-20 -13 -40 -13 -40 0 0 6 12 10 28 10 21 0 24 -2
12 -10z m2193 -1552 c3 -35 8 -75 12 -90 6 -23 4 -29 -16 -37 -13 -4 -29 -6
-35 -4 -16 6 -34 49 -34 83 0 16 -4 40 -10 54 -8 21 -6 28 13 41 12 8 31 15
43 15 20 0 23 -6 27 -62z m-118 -136 c16 -11 35 -50 35 -71 0 -11 5 -23 10
-26 19 -12 11 -33 -10 -28 -14 4 -20 0 -20 -11 0 -10 -5 -14 -11 -11 -6 4 -8
14 -5 22 3 8 -5 25 -19 39 -19 19 -24 31 -19 52 11 44 18 50 39 34z m-8225
-757 c0 -8 -7 -15 -16 -15 -14 0 -14 3 -4 15 7 8 14 15 16 15 2 0 4 -7 4 -15z
m1105 -2175 c-3 -5 -13 -10 -21 -10 -8 0 -14 5 -14 10 0 6 9 10 21 10 11 0 17
-4 14 -10z m638 -205 c24 -15 106 -23 124 -12 6 4 36 1 67 -5 46 -10 59 -10
65 1 6 10 13 4 25 -19 15 -31 15 -34 -5 -61 -11 -16 -31 -31 -45 -34 -13 -3
-34 -7 -47 -10 -13 -2 -41 0 -62 6 -32 9 -40 8 -47 -5 -6 -10 -22 -16 -43 -16
-31 0 -49 -12 -50 -34 0 -5 -9 -14 -20 -20 -11 -6 -22 -14 -25 -17 -3 -4 -26
-16 -52 -28 -26 -11 -49 -25 -52 -30 -3 -5 -21 -12 -40 -15 -18 -4 -41 -15
-51 -26 -9 -10 -42 -27 -73 -36 -32 -9 -64 -23 -73 -31 -8 -7 -29 -13 -45 -13
-18 0 -43 -11 -64 -29 -19 -15 -54 -32 -77 -35 -23 -4 -47 -14 -54 -22 -6 -8
-17 -14 -25 -14 -7 0 -19 -8 -26 -18 -7 -10 -30 -26 -50 -35 -21 -10 -38 -22
-38 -28 0 -6 -4 -8 -9 -5 -5 3 -29 -2 -54 -11 -42 -16 -48 -15 -91 1 -35 14
-46 23 -46 39 0 27 10 42 34 50 12 5 16 13 11 25 -12 32 -10 35 25 44 19 5 53
14 75 19 22 6 54 13 70 15 48 8 76 26 70 43 -8 25 30 44 55 29 20 -13 20 -13
-2 -30 l-23 -17 21 -21 c20 -21 21 -21 45 -1 23 18 23 20 6 39 -17 19 -17 19
19 25 39 7 74 32 74 54 0 7 14 28 31 45 37 39 97 57 195 58 59 0 74 4 90 21
16 17 16 22 4 30 -8 5 -31 8 -50 7 -26 -2 -35 1 -38 14 -3 18 9 23 80 33 37 5
52 13 68 35 16 22 17 30 8 37 -9 5 -1 10 22 14 58 10 70 10 93 -6z m-2056
-262 c14 -37 97 -113 124 -113 34 0 55 -25 63 -75 4 -22 21 -57 37 -77 16 -20
29 -41 29 -47 0 -24 24 -60 43 -63 40 -6 80 -94 58 -128 -30 -45 -188 22 -293
125 -62 60 -104 86 -175 109 -48 16 -52 20 -58 55 -12 74 58 211 109 211 8 0
18 5 21 10 10 16 35 12 42 -7z m2678 -143 c20 -23 23 -63 5 -85 -17 -20 -69
-19 -92 2 -24 22 -23 52 4 80 26 28 59 30 83 3z m-1778 -456 c-3 -3 -12 -4
-19 -1 -8 3 -5 6 6 6 11 1 17 -2 13 -5z m-201 -84 c15 -31 25 -40 49 -42 l30
-3 -26 -26 c-20 -20 -33 -26 -53 -22 -25 5 -27 9 -22 37 3 17 2 46 -3 64 -13
44 2 40 25 -8z m-448 -182 c26 -17 60 -46 75 -65 16 -18 35 -33 42 -33 7 0 19
-16 25 -36 7 -19 19 -38 28 -42 33 -12 71 -55 97 -108 15 -30 31 -54 36 -54 6
0 7 -5 4 -10 -3 -6 3 -22 15 -37 11 -14 16 -29 11 -32 -5 -3 -10 -15 -12 -26
-11 -56 -75 -12 -136 92 -15 26 -34 55 -43 65 -8 9 -31 36 -50 59 -19 23 -45
52 -57 64 -13 12 -23 27 -23 32 0 6 -9 20 -20 33 -11 13 -20 29 -20 37 0 7 -6
13 -13 13 -6 0 -17 16 -23 35 -18 56 -3 59 64 13z m2269 -14 c-3 -3 -12 -4
-19 -1 -8 3 -5 6 6 6 11 1 17 -2 13 -5z m8183 -694 c0 -5 -7 -10 -15 -10 -8 0
-15 5 -15 10 0 6 7 10 15 10 8 0 15 -4 15 -10z m40 -2538 c0 -13 -49 -36 -57
-28 -5 4 1 14 11 22 22 15 46 19 46 6z m-1 -91 c21 -13 5 -41 -24 -41 -27 0
-33 18 -13 38 14 14 19 15 37 3z m-1044 -31 c3 -5 -1 -10 -9 -10 -9 0 -16 5
-16 10 0 6 4 10 9 10 6 0 13 -4 16 -10z m1095 -109 c0 -22 4 -42 9 -45 4 -3
11 -25 15 -48 4 -23 11 -45 16 -48 5 -3 11 -36 12 -72 3 -55 6 -68 22 -72 10
-2 15 -9 11 -15 -4 -7 5 -11 24 -11 24 0 31 4 31 19 0 30 41 69 75 71 54 4 63
0 74 -30 5 -17 18 -33 27 -37 10 -3 30 -20 46 -37 21 -22 25 -24 16 -8 -9 16
-10 25 -2 30 15 9 24 51 14 57 -5 3 -18 18 -28 33 l-20 27 122 -1 c118 0 123
-1 189 -35 75 -38 164 -110 301 -242 133 -129 152 -138 299 -148 164 -10 207
-27 270 -104 74 -92 225 -324 285 -440 39 -74 71 -193 72 -259 0 -51 -15 -156
-31 -216 -43 -163 -76 -262 -110 -337 -23 -48 -61 -135 -86 -193 -77 -180
-188 -426 -276 -610 -35 -74 -68 -146 -72 -160 -4 -14 -33 -79 -65 -145 -32
-66 -74 -158 -93 -205 -19 -47 -52 -121 -72 -165 -21 -44 -56 -118 -78 -165
-45 -97 -90 -187 -172 -345 -32 -60 -102 -198 -157 -305 -55 -107 -113 -216
-129 -243 -16 -26 -29 -49 -29 -52 0 -3 -23 -47 -52 -97 -28 -51 -83 -156
-122 -233 -39 -77 -100 -182 -135 -234 -34 -51 -71 -107 -80 -125 -10 -17 -47
-83 -83 -146 -147 -260 -282 -508 -313 -577 -14 -30 -41 -79 -60 -109 -53 -83
-105 -190 -136 -283 -19 -56 -54 -123 -107 -205 -122 -188 -233 -370 -297
-491 -32 -60 -88 -155 -123 -210 -36 -55 -96 -152 -133 -215 -37 -63 -85 -142
-106 -175 -21 -32 -40 -64 -42 -70 -2 -5 -7 -12 -10 -15 -3 -3 -15 -21 -25
-40 -38 -71 -106 -167 -170 -242 -36 -43 -66 -87 -66 -98 0 -16 -5 -20 -18
-16 -22 7 -102 -57 -89 -70 5 -5 14 -1 21 9 7 9 18 17 23 17 6 0 18 10 26 23
l16 22 0 -22 c1 -31 -124 -271 -199 -383 -5 -8 -52 -87 -104 -175 -52 -88
-144 -241 -204 -340 -144 -238 -316 -527 -382 -645 -29 -52 -77 -135 -106
-185 -28 -49 -64 -112 -79 -140 -16 -27 -48 -81 -73 -120 -84 -131 -95 -148
-127 -209 -46 -87 -172 -303 -194 -334 -10 -15 -27 -45 -38 -67 -11 -22 -30
-58 -43 -80 -13 -22 -41 -74 -63 -115 -22 -41 -77 -140 -122 -220 -45 -80
-106 -192 -135 -250 -29 -58 -72 -136 -94 -175 -23 -38 -61 -108 -86 -155 -24
-47 -54 -102 -67 -123 -13 -21 -62 -113 -108 -205 -46 -92 -95 -187 -109 -212
-14 -25 -57 -110 -96 -190 -40 -80 -76 -149 -80 -155 -4 -5 -48 -84 -97 -175
-49 -91 -94 -174 -100 -185 -6 -11 -32 -63 -58 -115 -102 -205 -171 -320 -192
-320 -19 0 -23 -24 52 285 80 326 141 693 165 990 6 77 20 183 30 235 11 52
26 136 34 185 9 50 22 122 30 160 8 39 19 97 25 130 5 33 14 83 19 110 55 285
76 696 87 1710 7 665 12 712 84 845 13 25 31 59 39 75 36 73 237 366 302 441
19 23 58 74 85 114 28 40 55 78 60 84 6 6 18 23 28 38 9 15 32 44 51 65 98
109 117 131 138 166 21 34 26 37 58 32 40 -7 60 7 165 110 104 103 148 162
141 189 -6 26 -81 158 -142 254 -92 143 -155 239 -244 371 -35 52 -76 121 -93
155 -16 34 -35 68 -42 76 -7 8 -24 35 -37 60 -64 116 -215 357 -240 385 -15
17 -36 21 -121 26 -80 5 -114 12 -158 33 -31 14 -91 35 -135 47 -72 19 -107
21 -421 23 -336 1 -343 1 -364 23 -32 31 -20 79 33 131 42 42 46 59 9 47 -25
-8 -208 -207 -224 -243 -6 -15 -25 -50 -43 -77 -17 -28 -47 -82 -66 -120 -20
-39 -63 -123 -96 -188 -34 -66 -75 -156 -92 -200 -17 -45 -46 -118 -64 -162
-19 -44 -36 -89 -39 -100 -3 -11 -20 -54 -37 -95 -53 -122 -57 -131 -91 -225
-18 -49 -52 -128 -76 -175 -24 -46 -43 -90 -43 -98 0 -23 -50 -132 -96 -207
-22 -36 -41 -91 -59 -169 -6 -27 -5 -28 11 -16 14 13 16 12 12 -5 -2 -11 -11
-19 -21 -19 -18 2 -23 -29 -11 -61 9 -23 74 79 74 115 0 15 8 34 19 44 10 9
26 34 36 56 10 22 21 40 25 40 4 0 7 7 7 15 0 8 16 48 35 88 19 39 45 97 58
127 63 152 134 279 190 339 8 9 21 29 29 43 8 15 18 25 23 22 4 -3 8 0 8 5 0
6 5 11 11 11 5 0 7 -5 3 -12 -5 -7 -2 -9 8 -5 12 4 17 -3 21 -26 3 -18 15 -72
28 -122 22 -87 22 -103 20 -484 -2 -253 2 -437 9 -517 11 -109 11 -128 -4
-163 -9 -23 -19 -66 -22 -96 -5 -44 -15 -66 -44 -103 -67 -85 -83 -140 -149
-502 -12 -63 -25 -131 -31 -150 -34 -130 -73 -433 -105 -825 -8 -94 -40 -338
-54 -410 -14 -72 -79 -360 -95 -422 -17 -63 -95 -209 -267 -500 -194 -327
-339 -607 -424 -823 -21 -52 -46 -113 -56 -136 -10 -22 -24 -58 -32 -80 -19
-51 -112 -286 -137 -344 -10 -25 -40 -100 -67 -167 -26 -68 -53 -123 -60 -123
-17 0 -17 17 0 24 6 3 0 3 -14 0 l-26 -5 -7 98 c-12 156 -15 809 -4 1033 5
113 11 261 14 330 2 69 6 148 8 175 2 28 7 104 10 170 4 66 10 127 12 135 3 8
10 83 15 165 11 170 13 191 35 365 8 69 18 177 20 240 3 63 9 142 14 175 6 33
14 112 20 175 8 97 58 551 75 685 3 22 10 75 15 118 21 166 30 235 40 302 29
189 41 277 50 355 5 47 16 126 24 175 8 50 21 142 31 205 9 63 20 129 26 146
5 17 11 46 15 65 18 114 23 139 33 189 42 214 103 555 116 655 9 66 28 167 41
225 14 58 34 146 46 195 11 50 31 131 44 180 13 50 35 137 49 195 14 58 35
139 45 180 11 41 29 113 40 160 26 106 55 202 135 445 35 105 73 242 85 305
12 63 26 133 32 154 35 135 39 491 9 796 -6 58 -18 177 -27 265 -28 277 -33
363 -40 640 -6 269 -1 340 25 340 7 0 19 -16 26 -35 30 -87 45 -139 45 -159 0
-11 4 -21 8 -21 5 0 15 -19 22 -42 8 -24 17 -48 22 -54 4 -6 9 -19 11 -30 1
-10 6 -25 10 -31 5 -7 6 -17 3 -22 -9 -14 14 -132 33 -170 10 -20 36 -72 57
-115 28 -56 58 -98 105 -145 56 -56 67 -73 72 -109 3 -23 11 -49 17 -58 7 -8
14 -29 15 -47 1 -17 14 -58 28 -90 15 -32 27 -63 27 -69 0 -25 76 -217 107
-270 18 -31 33 -59 33 -61 0 -11 144 -273 174 -317 53 -80 171 -223 244 -296
38 -40 72 -80 74 -90 1 -9 9 -19 16 -22 10 -3 10 2 0 25 -7 15 -18 31 -24 35
-6 4 -11 21 -12 39 0 17 -8 39 -17 49 -13 14 -16 44 -18 147 l-2 130 33 27
c39 34 43 66 7 66 -25 0 -35 23 -16 34 14 9 41 -4 41 -20 0 -8 8 -14 18 -14
10 0 26 -10 37 -22 l20 -23 3 23 c3 18 10 22 43 22 29 0 39 -4 39 -16 0 -14
10 -16 63 -12 34 3 70 8 80 13 26 11 22 -32 -5 -54 -22 -18 -18 -41 7 -41 7 0
15 -8 17 -17 3 -15 9 -13 35 15 37 39 43 40 43 7 0 -22 4 -25 39 -25 28 0 49
-8 71 -26 17 -15 44 -27 59 -28 53 -2 89 -54 59 -85 -11 -10 11 -11 112 -6
151 8 220 27 220 62 0 30 36 45 110 46 32 0 42 2 23 4 -37 5 -38 8 -18 43 20
35 19 40 -10 40 -20 0 -25 5 -25 25 0 23 4 25 40 25 29 0 40 4 40 15 0 8 7 15
15 15 11 0 15 11 15 40 0 39 1 40 35 40 22 0 35 5 35 13 0 7 6 22 14 33 15 19
15 19 30 -1 9 -11 16 -14 16 -7 0 6 7 12 15 12 59 0 85 55 43 91 l-23 18 23 1
c12 0 22 -5 22 -11 0 -5 5 -7 12 -3 9 6 9 9 0 12 -7 2 -12 13 -12 24 0 17 6
19 43 17 28 -2 52 3 67 14 14 9 28 17 33 17 4 0 20 11 35 26 l27 25 -22 19
c-37 30 -30 50 17 50 35 0 40 3 40 23 0 30 32 48 96 53 39 4 61 12 80 29 15
14 33 25 41 25 17 0 35 17 51 47 16 28 15 31 -5 35 -26 5 52 54 100 62 20 4
37 12 37 19 0 15 55 47 80 47 28 0 44 34 28 60 -11 17 -9 23 13 44 14 13 35
27 47 31 13 3 30 17 38 31 9 13 23 24 30 24 8 0 31 16 51 36 29 29 33 38 22
46 -12 8 -12 10 1 15 24 10 77 67 81 88 3 11 13 21 24 24 19 3 145 121 145
136 0 12 44 55 57 55 7 0 16 18 19 40 4 22 12 40 18 40 11 0 76 125 76 148 0
6 5 12 11 12 5 0 9 8 8 18 -3 36 1 43 24 40 13 -1 35 5 50 15 14 9 33 17 42
17 23 0 18 27 -7 34 l-23 7 23 9 c12 5 27 21 34 35 7 16 23 28 40 32 35 7 37
33 3 33 -17 0 -25 5 -25 18 1 20 33 62 49 62 7 0 27 16 47 35 31 32 35 40 32
82 -3 45 -1 48 32 64 19 9 38 15 43 12 4 -2 7 10 7 27 0 22 8 38 25 52 14 11
25 26 25 34 0 8 7 14 15 14 8 0 15 7 15 15 0 8 -7 15 -15 15 -8 0 -15 5 -15
10 0 6 7 10 15 10 8 0 15 7 15 15 0 8 5 15 11 15 8 0 8 4 -1 15 -9 11 -4 22
29 57 23 23 41 49 41 57 0 8 3 11 7 8 14 -15 33 18 33 58 0 29 6 47 20 60 11
10 20 26 20 36 0 12 15 26 40 39 22 11 40 24 40 28 0 5 8 17 18 28 10 10 28
36 41 57 12 20 29 37 37 37 8 0 14 5 14 10 0 6 11 16 25 22 14 6 25 17 25 24
0 8 17 29 38 49 20 19 31 35 24 35 -21 0 -3 20 19 20 10 0 19 5 19 10 0 6 -4
10 -10 10 -5 0 -10 5 -10 10 0 6 7 10 15 10 9 0 19 8 22 18 10 25 44 47 73 47
21 0 25 5 25 32 1 18 3 34 5 36 3 2 26 18 53 36 26 18 47 37 47 44 0 7 9 18
20 25 11 7 20 19 20 27 0 8 5 15 11 15 21 0 78 51 72 66 -3 8 1 14 10 14 18 0
67 55 67 75 0 8 6 18 14 22 8 4 37 29 64 55 32 30 62 49 86 53 21 4 36 13 36
21 0 8 8 14 18 14 11 0 25 14 36 36 9 20 19 34 23 31 9 -9 32 19 49 59 9 22
20 34 28 31 8 -3 13 1 12 10 -1 11 13 16 53 19 30 2 57 6 59 9 6 6 -27 50 -35
47 -4 -2 -9 1 -11 6 -2 6 6 13 17 17 28 9 38 52 18 72 -14 15 -14 20 4 55 11
21 20 54 21 73 1 23 5 32 12 27 6 -5 30 -5 54 0 31 7 42 14 42 28 0 21 -20 30
-73 32 -20 1 -34 5 -31 10 3 4 -6 8 -20 8 -31 0 -36 7 -29 43 4 18 12 27 25
27 16 0 19 6 18 38 -3 56 -1 62 15 62 8 0 15 5 15 10 0 6 -9 10 -20 10 -29 0
-35 25 -12 48 11 11 28 36 37 56 14 29 15 39 5 51 -11 13 -10 18 6 30 10 8 22
15 27 15 13 0 7 30 -7 30 -7 0 -20 7 -27 16 -11 14 -10 18 5 30 11 8 20 28 21
46 1 18 6 41 10 52 9 20 -10 37 -32 29 -9 -3 -13 3 -13 20 0 26 12 34 58 36
19 1 22 -4 22 -38z m-65 -51 c3 -5 1 -10 -4 -10 -6 0 -11 5 -11 10 0 6 2 10 4
10 3 0 8 -4 11 -10z m245 0 c0 -5 -4 -10 -9 -10 -6 0 -13 5 -16 10 -3 6 1 10
9 10 9 0 16 -4 16 -10z m-8636 -306 c9 -22 8 -24 -9 -24 -8 0 -15 9 -15 20 0
24 15 27 24 4z m-5194 -54 c0 -5 -15 -10 -34 -10 -19 0 -38 5 -41 10 -4 6 10
10 34 10 23 0 41 -4 41 -10z m6050 -760 c0 -5 -7 -10 -16 -10 -8 0 -12 5 -9
10 3 6 10 10 16 10 5 0 9 -4 9 -10z m2240 -2814 c0 -3 -4 -8 -10 -11 -5 -3
-10 -1 -10 4 0 6 5 11 10 11 6 0 10 -2 10 -4z m30 -68 c0 -5 -7 -8 -15 -8 -15
0 -20 21 -8 33 7 7 23 -11 23 -25z m363 -255 c-7 -2 -19 -2 -25 0 -7 3 -2 5
12 5 14 0 19 -2 13 -5z m1684 -135 c-2 -13 -4 -3 -4 22 0 25 2 35 4 23 2 -13
2 -33 0 -45z m-130 -174 c-3 -3 -12 -4 -19 -1 -8 3 -5 6 6 6 11 1 17 -2 13 -5z
m-364 -321 c-13 -2 -33 -2 -45 0 -13 2 -3 4 22 4 25 0 35 -2 23 -4z m8117
-14759 l0 -264 -50 0 -50 0 0 210 c0 116 -2 210 -3 210 -2 0 -30 -9 -62 -20
-32 -11 -60 -20 -62 -20 -1 0 -3 17 -3 38 l0 39 108 40 c59 22 110 38 115 36
4 -2 7 -123 7 -269z m538 104 l2 -167 28 -3 c23 -3 27 -8 30 -40 3 -36 2 -38
-27 -38 l-31 0 0 -60 0 -60 -50 0 -49 0 -3 58 -3 57 -112 3 -113 3 0 28 c0 25
37 88 203 349 27 42 29 43 75 40 l47 -3 3 -167z m326 -33 c-36 -105 -80 -233
-98 -285 l-32 -95 -37 -3 c-20 -2 -37 0 -37 4 0 8 83 250 154 449 40 111 45
120 72 126 16 3 32 3 36 -1 5 -3 -22 -91 -58 -195z m418 196 c38 -14 85 -70
98 -116 8 -27 11 -90 8 -172 -3 -113 -6 -133 -27 -170 -40 -70 -116 -97 -204
-72 -45 12 -73 40 -100 99 -17 37 -20 66 -20 160 0 122 17 203 51 233 48 43
135 60 194 38z m482 -14 c27 -15 48 -38 65 -72 23 -44 26 -62 26 -150 0 -83
-4 -109 -24 -153 -38 -85 -110 -136 -201 -143 l-45 -4 -3 43 -3 42 36 0 c65 0
135 55 135 105 l0 23 -37 -19 c-46 -24 -67 -24 -119 0 -126 58 -120 280 11
337 47 21 114 17 159 -9z m453 10 c2 -2 -29 -96 -68 -208 -39 -112 -83 -240
-98 -284 -27 -79 -28 -80 -64 -83 -21 -2 -37 1 -37 7 0 5 13 46 30 90 16 45
41 116 55 159 15 42 44 129 66 192 23 63 42 120 44 126 3 10 62 10 72 1z m361
-2 c73 -30 102 -125 63 -210 -10 -22 -57 -83 -104 -135 l-85 -95 114 -3 114
-3 0 -39 0 -40 -180 0 -180 0 0 34 c0 30 14 50 105 148 111 119 135 157 135
207 0 68 -87 98 -129 45 -12 -15 -21 -35 -21 -45 0 -16 -8 -19 -51 -19 l-52 0
6 36 c8 45 46 96 89 117 42 21 126 22 176 2z m476 0 c77 -37 99 -105 94 -281
-3 -114 -6 -134 -27 -171 -40 -70 -116 -97 -204 -72 -45 12 -73 40 -100 99
-29 65 -29 275 1 342 18 41 54 76 92 91 30 11 113 7 144 -8z m481 -5 c71 -34
95 -121 56 -205 -10 -22 -57 -83 -104 -135 l-85 -95 114 -3 114 -3 0 -39 0
-40 -180 0 -180 0 0 35 c0 29 11 46 68 107 37 40 72 78 79 86 87 93 111 157
79 207 -33 51 -136 19 -136 -42 0 -21 -4 -23 -51 -23 l-52 0 6 35 c18 111 158
170 272 115z m475 1 c93 -49 108 -171 27 -229 -17 -13 -16 -16 20 -47 36 -31
38 -36 38 -93 0 -72 -21 -107 -80 -136 -63 -31 -124 -32 -188 -3 -56 26 -81
56 -88 107 -4 23 -1 25 44 28 45 3 48 1 58 -26 28 -82 159 -60 159 26 -1 57
-21 76 -88 82 l-57 5 -3 38 -3 37 41 0 c42 0 79 14 92 34 14 20 8 79 -9 98
-35 38 -133 11 -133 -37 0 -11 -12 -15 -51 -15 l-51 0 6 30 c8 44 35 77 81
100 52 26 138 27 185 1z m1439 -10 c78 -56 82 -166 8 -219 -17 -13 -16 -16 19
-46 33 -28 38 -39 41 -87 4 -45 1 -60 -19 -88 -31 -47 -76 -71 -141 -78 -102
-10 -197 53 -197 132 0 25 2 26 48 23 39 -2 48 -7 50 -24 3 -24 50 -54 85 -54
42 0 77 36 77 79 0 52 -30 79 -95 83 -50 3 -50 3 -53 41 l-3 37 44 0 c61 0 97
29 97 77 0 49 -24 73 -72 73 -40 0 -78 -27 -78 -56 0 -12 -10 -14 -47 -12 -45
3 -48 5 -46 30 2 38 31 74 78 98 54 28 158 23 204 -9z m749 -143 l2 -167 28
-3 c23 -3 27 -8 30 -40 3 -36 2 -38 -27 -38 l-31 0 0 -60 0 -60 -50 0 -49 0
-3 58 -3 57 -112 3 -113 3 0 28 c0 19 35 85 106 197 58 93 111 175 117 182 6
8 27 12 56 10 l46 -3 3 -167z m422 154 c74 -37 100 -123 61 -207 -10 -22 -57
-83 -104 -135 l-85 -95 114 -3 114 -3 0 -39 0 -40 -180 0 -180 0 0 35 c0 29
11 46 63 102 124 134 142 155 160 186 21 39 22 85 1 115 -23 33 -86 31 -113
-4 -12 -15 -21 -35 -21 -45 0 -16 -8 -19 -51 -19 l-52 0 6 35 c17 107 162 170
267 117z m-1680 -257 l0 -265 -50 0 -50 0 0 211 c0 197 -1 211 -17 204 -17 -7
-105 -35 -110 -35 -2 0 -3 18 -3 39 l0 39 93 35 c50 19 102 35 115 36 l22 1 0
-265z m802 128 c22 -20 23 -56 2 -73 -20 -18 -74 -17 -85 1 -36 57 33 117 83
72z m0 -310 c21 -18 24 -53 6 -71 -7 -7 -29 -12 -49 -12 -39 0 -49 11 -49 55
0 42 58 59 92 28z"/>
<path d="M14625 30010 c-3 -5 -1 -10 4 -10 6 0 11 5 11 10 0 6 -2 10 -4 10 -3
0 -8 -4 -11 -10z"/>
<path d="M14310 27590 c-8 -5 -27 -10 -42 -10 -15 0 -30 -4 -33 -10 -8 -12
-65 -13 -84 -1 -14 9 -104 -30 -117 -51 -4 -6 5 -21 21 -34 18 -14 25 -26 20
-35 -5 -8 -4 -11 0 -6 5 4 18 1 30 -7 12 -8 32 -16 45 -18 16 -2 26 -12 31
-29 l7 -26 -85 -6 c-93 -5 -123 -1 -123 18 0 7 -7 15 -15 19 -8 3 -15 17 -15
31 0 14 -4 25 -8 25 -5 0 -27 14 -50 32 -56 43 -111 48 -163 14 -21 -14 -52
-26 -68 -26 -39 0 -61 -9 -61 -26 0 -20 -33 -17 -84 7 -49 24 -83 20 -71 -9 4
-9 8 -24 9 -32 1 -17 -70 -54 -132 -68 -46 -10 -45 -10 -89 42 -26 29 -44 32
-76 12 -12 -8 -46 -20 -74 -27 -29 -7 -53 -16 -53 -21 0 -4 -11 -8 -24 -8 -13
0 -63 -11 -110 -25 -68 -20 -99 -24 -141 -19 -33 4 -60 3 -67 -4 -7 -5 -38
-15 -69 -21 -42 -9 -64 -20 -89 -46 -25 -26 -39 -33 -56 -29 -14 4 -47 -7 -92
-29 -75 -37 -85 -43 -143 -98 -32 -30 -43 -35 -81 -33 -41 3 -127 -19 -138
-35 -3 -4 -32 -15 -65 -25 -60 -18 -102 -35 -140 -59 -11 -6 -21 -13 -23 -14
-2 0 -5 -7 -6 -15 -1 -7 -18 -39 -37 -71 -19 -32 -38 -67 -44 -78 -7 -14 -17
-19 -34 -16 -14 3 -30 3 -37 0 -22 -8 -66 -112 -60 -138 3 -13 2 -27 -4 -30
-5 -3 -10 -29 -10 -56 0 -28 -7 -64 -16 -81 -19 -36 -13 -106 11 -141 19 -27
19 -37 0 -37 -7 0 -18 -7 -23 -16 -7 -13 -19 -16 -51 -11 -56 7 -54 -10 10
-67 43 -39 49 -49 39 -61 -7 -8 -9 -15 -4 -15 5 0 22 -11 39 -25 27 -24 29
-31 30 -96 0 -44 5 -73 12 -77 7 -4 13 -22 15 -40 1 -18 6 -32 10 -32 4 0 5
-7 2 -15 -4 -9 0 -15 7 -15 12 0 12 -2 0 -9 -9 -6 -11 -18 -5 -42 4 -19 7 -38
6 -42 -1 -4 5 -21 13 -37 l15 -30 70 70 c38 39 74 70 81 70 7 0 20 7 30 16 12
11 42 16 97 18 59 2 86 8 105 22 15 10 27 22 27 27 0 4 6 7 13 7 7 0 18 9 25
20 7 11 16 20 22 20 5 0 29 14 53 30 25 17 49 30 54 30 6 0 18 9 28 20 34 38
45 26 45 -50 0 -38 -4 -70 -9 -70 -5 0 -15 -26 -21 -57 -6 -32 -14 -66 -16
-75 -7 -24 22 -23 106 0 71 20 87 42 48 63 -13 7 -24 12 -25 11 -10 -7 -23 1
-23 14 0 8 12 19 28 25 15 5 36 23 47 39 24 36 45 44 104 41 36 -2 43 0 38 13
-3 8 -2 18 4 21 5 4 7 11 3 17 -6 9 19 67 42 98 7 8 24 38 39 67 30 58 92 116
189 177 35 23 82 53 103 68 85 60 120 46 129 -52 16 -167 122 -328 263 -400
56 -28 178 -49 236 -40 85 13 155 31 155 41 0 5 6 9 13 9 34 0 167 198 181
270 13 63 17 69 49 85 28 14 33 14 43 0 6 -8 16 -15 21 -15 12 0 26 -76 18
-91 -4 -5 3 -9 14 -9 12 0 21 -5 21 -11 0 -7 11 -9 26 -6 29 5 44 -17 25 -36
-19 -19 -12 -44 17 -63 56 -37 111 -61 124 -53 8 5 21 1 33 -10 11 -10 30 -21
42 -24 30 -7 63 38 63 87 0 20 4 36 10 36 13 0 37 59 39 94 0 16 -4 35 -11 43
-9 11 -9 16 1 22 7 5 14 19 14 33 2 23 7 25 96 37 52 6 102 18 110 25 9 8 25
16 36 18 17 3 20 12 22 67 2 59 4 67 32 88 30 24 41 53 20 53 -6 0 -8 8 -4 19
3 11 1 22 -5 26 -5 3 -10 0 -10 -7 -1 -7 -10 -2 -21 12 -13 15 -17 26 -9 28
17 6 -21 31 -49 32 -19 0 -23 4 -19 25 4 20 1 25 -15 25 -11 0 -26 -8 -33 -17
-13 -17 -13 -17 -14 0 0 14 -4 16 -20 7 -21 -11 -211 7 -221 22 -3 4 -45 10
-93 12 -58 3 -97 11 -113 21 -17 12 -28 13 -37 6 -14 -12 -76 -10 -76 2 0 4
-18 7 -40 7 -23 0 -40 5 -40 11 0 8 -17 10 -57 5 -169 -21 -218 -23 -319 -19
-78 4 -118 1 -134 -7 -28 -15 -181 -15 -208 -1 -22 12 -66 14 -134 6 -26 -3
-49 -1 -52 3 -3 5 8 24 24 42 34 38 37 56 13 82 -15 17 -15 20 13 49 52 56
151 80 173 42 10 -17 12 -16 28 4 20 24 84 48 152 56 35 4 53 15 90 51 32 31
55 46 73 46 15 0 30 5 33 10 5 8 12 7 22 -1 12 -10 16 -10 23 2 14 22 115 19
132 -4 13 -17 15 -17 58 2 25 11 52 21 61 21 8 0 25 11 37 25 12 14 26 25 31
25 5 0 12 8 15 18 10 31 40 42 71 26 23 -12 34 -12 61 -2 19 7 34 16 34 20 0
11 52 10 70 -2 8 -5 19 -5 25 -1 5 4 33 15 62 24 63 20 99 11 109 -29 4 -14
10 -21 13 -15 4 6 16 12 26 14 11 2 28 8 38 12 10 4 29 3 43 -4 40 -18 45 -14
38 32 -5 28 -17 53 -38 74 -54 55 -71 77 -77 98 -5 17 -13 20 -60 18 l-54 -1
38 11 c20 6 37 13 37 17 0 12 -29 45 -30 33 0 -18 -95 -10 -118 10 -21 19 -31
21 -52 7z m-785 -231 c37 -17 45 -26 45 -48 0 -24 -6 -29 -49 -40 -46 -12
-121 -7 -121 8 0 18 27 31 63 31 l38 0 -20 26 c-11 15 -18 30 -15 35 7 12 8
12 59 -12z m-189 -63 c25 -19 10 -35 -39 -43 l-36 -5 12 31 c12 34 32 39 63
17z m1304 -638 c0 -16 -3 -19 -11 -11 -6 6 -8 16 -5 22 11 17 16 13 16 -11z
m100 -228 c0 -5 -4 -10 -10 -10 -5 0 -10 5 -10 10 0 6 5 10 10 10 6 0 10 -4
10 -10z m-1240 -32 c24 -26 24 -28 4 -56 -29 -42 -103 -21 -104 30 0 20 36 48
62 48 9 0 26 -10 38 -22z m-1810 -713 c0 -9 -6 -12 -15 -9 -8 4 -12 10 -9 15
8 14 24 10 24 -6z"/>
<path d="M14700 27240 c0 -5 5 -10 10 -10 6 0 10 5 10 10 0 6 -4 10 -10 10 -5
0 -10 -4 -10 -10z"/>
<path d="M14464 27232 c-20 -14 -25 -42 -6 -42 27 0 45 17 39 34 -7 17 -16 20
-33 8z"/>
<path d="M16760 26560 c0 -19 3 -21 12 -12 9 9 9 15 0 24 -9 9 -12 7 -12 -12z"/>
<path d="M18461 26221 c-9 -6 -11 -18 -7 -35 8 -33 22 -33 30 0 8 31 -3 47
-23 35z"/>
<path d="M17497 26063 c-10 -9 -9 -51 1 -57 20 -12 -27 -182 -55 -199 -6 -4
-20 -33 -29 -65 -9 -31 -20 -68 -25 -81 -18 -45 -22 -135 -7 -155 25 -32 50
-10 110 95 44 78 58 112 63 159 6 52 4 60 -13 71 -17 10 -18 17 -10 47 7 23 6
38 -1 45 -14 14 -14 72 1 96 19 31 -11 69 -35 44z"/>
<path d="M8064 25995 c-4 -8 -13 -15 -22 -15 -8 0 -13 -3 -9 -6 10 -10 44 6
44 21 0 19 -6 19 -13 0z"/>
<path d="M14092 25988 c-16 -16 -15 -25 7 -56 10 -15 22 -46 26 -69 4 -24 14
-47 23 -52 14 -8 13 -12 -8 -30 l-25 -20 23 -1 c12 0 22 5 22 12 0 7 12 22 28
34 25 21 26 24 10 36 -23 17 -49 83 -42 103 7 17 -21 55 -41 55 -6 0 -16 -5
-23 -12z"/>
<path d="M13790 25815 c-16 -19 -6 -45 18 -45 27 0 32 9 20 36 -13 28 -21 30
-38 9z"/>
<path d="M12653 25806 c-21 -12 -21 -14 -6 -37 9 -13 27 -36 40 -50 21 -23 29
-25 64 -19 22 4 42 10 46 13 6 6 -39 27 -57 27 -5 0 -12 10 -16 23 -5 17 -43
61 -48 56 -1 -1 -11 -6 -23 -13z"/>
<path d="M12850 25700 c0 -5 7 -10 15 -10 8 0 15 -4 15 -10 0 -13 21 -13 40 0
13 9 13 11 0 20 -20 13 -70 13 -70 0z"/>
<path d="M13040 25689 c0 -5 5 -7 10 -4 6 3 10 8 10 11 0 2 -4 4 -10 4 -5 0
-10 -5 -10 -11z"/>
<path d="M13780 25657 c-17 -6 -34 -28 -51 -63 l-25 -54 37 0 c41 0 216 63
239 87 13 13 9 14 -43 8 -36 -5 -62 -3 -70 3 -24 21 -62 29 -87 19z"/>
<path d="M13215 25610 c-3 -5 -17 -10 -31 -10 -21 0 -24 -4 -24 -39 0 -22 -5
-42 -12 -44 -7 -3 2 -6 21 -6 26 -1 41 7 72 39 47 49 50 70 10 70 -17 0 -33
-4 -36 -10z"/>
<path d="M12995 25550 c-3 -6 1 -12 9 -15 9 -3 22 -7 30 -9 8 -3 32 0 53 6 36
11 37 12 13 19 -38 11 -98 10 -105 -1z"/>
<path d="M13500 25509 c0 -7 16 -8 48 -3 64 9 66 14 4 14 -30 0 -52 -4 -52
-11z"/>
<path d="M17277 25300 c-7 -68 1 -175 15 -204 7 -12 6 -22 -1 -29 -17 -17 -13
-27 13 -27 23 0 23 0 22 117 -1 83 -5 118 -13 121 -8 2 -13 20 -13 43 0 61
-16 46 -23 -21z"/>
<path d="M17290 25010 c0 -11 4 -20 9 -20 13 0 32 26 24 33 -13 14 -33 6 -33
-13z"/>
<path d="M17320 24920 c0 -22 5 -40 10 -40 6 0 10 18 10 40 0 22 -4 40 -10 40
-5 0 -10 -18 -10 -40z"/>
<path d="M17322 24779 c3 -43 18 -47 18 -5 0 20 -5 36 -10 36 -6 0 -9 -14 -8
-31z"/>
<path d="M9594 24724 c-7 -3 -10 -14 -7 -25 5 -19 7 -19 24 -3 30 27 20 43
-17 28z"/>
<path d="M9668 24582 c6 -2 12 -11 12 -19 0 -10 6 -13 16 -9 9 3 20 6 25 6 5
0 9 7 9 15 0 10 -11 14 -37 13 -21 -1 -32 -3 -25 -6z"/>
<path d="M12912 23488 c-18 -18 -15 -34 12 -63 39 -42 54 -85 51 -145 -1 -30
-7 -54 -12 -53 -6 1 -25 -16 -43 -37 -19 -22 -39 -40 -46 -40 -6 0 -17 -7 -24
-15 -7 -9 -29 -15 -51 -15 -22 0 -39 -4 -39 -10 0 -5 -10 -9 -22 -8 -13 0 -47
-9 -76 -21 -29 -11 -61 -21 -72 -21 -11 0 -34 -9 -52 -20 -18 -11 -43 -20 -54
-20 -18 0 -115 -42 -186 -81 -10 -5 -29 -9 -42 -9 -14 0 -27 -4 -30 -9 -3 -5
-33 -12 -65 -16 -85 -10 -143 -41 -254 -137 -59 -51 -92 -74 -182 -123 -38
-22 -75 -44 -82 -51 -21 -20 -112 -37 -161 -30 -26 4 -98 9 -160 11 -92 3
-122 8 -160 26 -55 27 -144 30 -171 5 -9 -8 -26 -13 -37 -10 -13 3 -28 -4 -43
-20 -19 -20 -28 -23 -48 -15 -30 11 -36 11 -29 0 9 -13 -56 -20 -76 -7 -13 8
-21 7 -30 -2 -6 -6 -26 -12 -44 -12 -43 0 -58 -21 -50 -68 6 -41 31 -98 47
-107 5 -4 9 -21 9 -40 0 -40 51 -121 86 -137 13 -6 24 -17 24 -23 0 -18 32
-25 150 -31 58 -3 128 -7 155 -10 28 -3 84 -7 125 -11 41 -3 80 -9 87 -15 8
-6 19 -6 32 2 27 14 85 15 141 2 71 -16 280 -27 280 -14 0 6 26 13 58 17 31 3
71 12 87 19 17 7 47 20 68 29 20 9 37 21 37 27 0 6 21 23 48 40 26 16 57 39
69 52 12 13 28 29 35 35 7 7 18 17 23 22 6 6 32 29 58 53 27 24 67 60 89 81
22 20 47 37 55 37 7 0 16 6 19 14 3 8 19 18 35 21 16 4 29 11 29 16 0 5 7 9
15 9 9 0 33 9 55 20 22 11 47 20 57 20 10 0 30 11 46 24 15 13 45 26 66 30 22
3 46 13 55 21 8 9 30 22 49 30 18 8 39 21 46 29 7 9 29 18 50 22 20 4 48 13
62 20 37 19 89 81 89 107 0 12 7 35 15 51 18 35 19 118 3 250 -11 86 -16 102
-41 129 -16 18 -30 43 -32 57 -2 13 -17 36 -34 50 -17 15 -31 33 -31 42 0 24
-24 40 -38 26z"/>
<path d="M17245 22691 c-3 -6 -4 -15 -1 -20 8 -12 58 -1 53 13 -5 15 -43 20
-52 7z"/>
<path d="M17407 22548 c-2 -7 0 -21 4 -30 6 -11 4 -21 -4 -30 -19 -19 -28 -47
-16 -54 15 -9 58 23 58 43 1 10 2 32 3 48 3 24 -1 31 -18 33 -12 2 -24 -3 -27
-10z"/>
<path d="M14026 22087 c-37 -23 -66 -50 -92 -88 -17 -25 -39 -42 -63 -49 -20
-7 -54 -20 -76 -29 -22 -10 -74 -28 -115 -40 -41 -12 -84 -26 -95 -31 -20 -9
-172 -54 -235 -70 -19 -5 -62 -18 -94 -29 -33 -12 -66 -21 -73 -21 -8 0 -26
-9 -40 -20 -14 -11 -33 -20 -42 -21 -9 0 -29 -9 -46 -19 -16 -11 -43 -27 -60
-36 -16 -9 -36 -25 -43 -36 -17 -24 -65 -48 -96 -48 -31 0 -57 -10 -51 -19 6
-11 -28 -10 -42 1 -7 6 -19 4 -32 -4 -22 -14 -30 -44 -8 -33 6 4 1 -3 -13 -15
-18 -16 -32 -20 -56 -15 -21 4 -35 1 -41 -7 -12 -19 -50 -38 -76 -38 -16 0
-26 -9 -34 -30 -6 -16 -18 -30 -27 -30 -9 0 -40 -13 -69 -30 -30 -16 -61 -30
-69 -30 -9 0 -18 -4 -20 -9 -1 -5 -39 -12 -83 -15 -126 -9 -187 -21 -200 -40
-8 -10 -31 -19 -53 -21 -21 -2 -43 -5 -48 -6 -5 -1 -17 1 -28 6 -19 8 -63 -12
-96 -45 -12 -12 -42 -21 -85 -25 -66 -7 -84 -6 -200 14 -69 13 -165 -3 -165
-26 0 -15 -19 -17 -54 -3 -14 5 -26 6 -26 2 0 -4 -14 -15 -31 -24 -18 -11 -29
-24 -27 -34 2 -12 -7 -18 -36 -21 -21 -2 -48 -9 -59 -15 -11 -6 -52 -17 -91
-25 -39 -8 -73 -18 -76 -21 -3 -4 -22 -20 -43 -36 -38 -28 -42 -28 -156 -27
-102 0 -120 -2 -138 -18 -26 -24 -23 -79 6 -119 15 -21 32 -31 62 -36 23 -4
60 -15 83 -26 56 -25 127 -50 146 -50 8 0 42 16 74 36 32 19 86 42 120 51 34
8 73 22 88 29 15 8 42 14 61 14 18 0 37 4 43 9 5 6 27 14 49 20 22 5 56 14 76
19 20 5 66 23 101 40 39 18 91 33 129 38 35 3 69 10 74 14 6 4 36 11 69 15 32
4 79 13 105 20 73 22 218 33 326 25 88 -7 104 -6 142 12 24 11 43 24 43 28 0
5 17 19 38 31 20 13 52 37 70 54 55 51 192 125 232 125 19 0 44 7 54 15 11 8
29 12 40 9 12 -2 39 5 61 16 30 16 179 72 215 81 3 1 10 3 15 4 6 2 19 6 30 8
40 11 91 33 125 54 46 28 157 72 195 77 17 2 46 10 65 19 19 8 41 12 48 10 6
-3 12 0 12 5 0 5 12 13 28 17 15 5 32 10 37 12 6 2 25 6 43 9 18 4 32 12 32
20 0 8 8 14 18 14 11 0 27 9 37 20 9 10 46 29 82 41 53 17 74 31 121 82 31 33
76 79 100 102 35 36 42 49 42 82 0 21 -6 45 -12 51 -10 10 -10 17 0 32 27 43
-69 80 -122 47z"/>
<path d="M14517 21776 c-6 -15 11 -36 29 -36 14 0 23 20 17 38 -6 16 -40 15
-46 -2z"/>
<path d="M16484 21745 c-9 -21 3 -45 21 -45 21 0 30 27 15 45 -16 19 -29 19
-36 0z"/>
<path d="M16720 21690 c0 -5 5 -10 11 -10 5 0 7 5 4 10 -3 6 -8 10 -11 10 -2
0 -4 -4 -4 -10z"/>
<path d="M16670 21640 c0 -5 5 -10 10 -10 6 0 10 5 10 10 0 6 -4 10 -10 10 -5
0 -10 -4 -10 -10z"/>
<path d="M13738 21279 c-8 -5 -21 -23 -28 -40 -11 -25 -11 -32 0 -39 15 -10
70 40 70 63 0 19 -22 27 -42 16z"/>
<path d="M13980 20810 c0 -5 5 -10 10 -10 6 0 10 5 10 10 0 6 -4 10 -10 10 -5
0 -10 -4 -10 -10z"/>
<path d="M10530 19901 c-16 -32 -12 -58 11 -64 43 -11 64 17 45 61 -11 27 -42
29 -56 3z"/>
<path d="M11898 19513 c7 -3 16 -2 19 1 4 3 -2 6 -13 5 -11 0 -14 -3 -6 -6z"/>
<path d="M13750 18975 c-11 -13 -8 -15 14 -15 16 0 26 5 26 15 0 8 -6 15 -14
15 -7 0 -19 -7 -26 -15z"/>
<path d="M8150 25200 c-9 -6 -10 -10 -3 -10 6 0 15 5 18 10 8 12 4 12 -15 0z"/>
<path d="M17673 20766 c4 -10 7 -21 7 -26 0 -4 11 -11 25 -14 14 -4 25 -11 25
-16 0 -6 7 -10 16 -10 11 0 14 6 9 23 -9 29 -17 37 -43 42 -12 2 -27 7 -34 11
-8 5 -9 2 -5 -10z"/>
<path d="M18001 20754 c0 -11 3 -14 6 -6 3 7 2 16 -1 19 -3 4 -6 -2 -5 -13z"/>
<path d="M18260 20646 c0 -51 40 -115 93 -149 16 -10 26 -24 24 -31 -8 -21 36
-106 80 -156 22 -25 42 -52 45 -60 4 -10 8 -6 13 13 4 15 11 27 16 27 5 0 9
10 9 23 0 24 -55 117 -69 117 -5 0 -14 14 -20 30 -5 17 -19 44 -31 59 -11 16
-20 38 -20 50 0 13 -8 23 -24 27 -14 3 -32 14 -42 25 -9 10 -23 19 -29 19 -7
0 -15 7 -19 15 -9 23 -26 18 -26 -9z"/>
<path d="M18182 20199 c-7 -38 -23 -91 -36 -117 -13 -27 -28 -65 -32 -86 -4
-21 -15 -47 -25 -57 -9 -9 -15 -20 -11 -23 3 -3 -1 -6 -9 -6 -8 0 -21 -16 -28
-36 -7 -19 -19 -38 -27 -41 -8 -3 -14 -10 -14 -17 0 -6 -52 -62 -114 -124
-105 -104 -115 -118 -135 -180 -13 -37 -33 -80 -45 -97 -13 -16 -28 -47 -35
-67 -7 -20 -18 -41 -26 -48 -11 -9 -11 -16 2 -40 8 -17 19 -30 24 -30 5 0 9
-7 9 -15 0 -8 -4 -15 -9 -15 -15 0 -21 -29 -11 -55 5 -14 16 -25 25 -25 12 0
13 -3 3 -19 -9 -15 -7 -23 15 -47 16 -17 27 -40 27 -57 0 -15 7 -30 15 -33 8
-4 15 -12 15 -19 0 -7 16 -15 37 -18 28 -5 39 -2 49 11 12 17 29 96 25 119 -1
7 6 24 15 38 9 14 13 25 9 25 -4 0 0 12 10 26 13 20 14 28 4 40 -6 8 -7 14 -2
14 5 0 10 21 10 46 0 33 5 49 16 56 22 12 21 26 0 51 -17 19 -17 20 5 34 12 9
22 24 22 34 0 11 4 19 10 19 19 0 23 70 6 113 -10 26 -12 43 -6 45 5 2 10 10
10 18 0 8 4 14 8 14 5 0 15 11 22 25 7 14 19 25 26 25 7 0 24 -11 38 -25 14
-14 37 -25 52 -25 26 0 83 -26 96 -45 8 -12 10 -10 31 37 21 44 21 68 2 94
-22 29 -19 71 5 77 26 7 25 21 -2 35 -18 8 -19 11 -5 11 9 1 17 7 17 15 0 23
26 37 76 42 27 3 52 10 56 17 10 16 0 45 -23 68 -10 10 -19 24 -19 30 0 6 -11
24 -25 40 -13 16 -28 45 -33 63 -6 18 -31 60 -57 92 -26 33 -48 60 -49 61 -1
1 -7 -29 -14 -68z m-49 -423 c4 -9 -4 -16 -21 -19 -33 -6 -39 -2 -22 18 16 19
36 19 43 1z"/>
<path d="M18017 19610 c-22 -26 -23 -64 -1 -56 9 3 27 9 40 12 28 7 29 8 8 39
-20 30 -25 31 -47 5z"/>
<path d="M15922 18371 c4 -13 18 -16 19 -4 0 4 -5 9 -11 12 -7 2 -11 -2 -8 -8z"/>
<path d="M12960 16226 c0 -20 38 -30 55 -16 24 20 17 30 -20 30 -24 0 -35 -5
-35 -14z"/>
<path d="M13650 15996 c0 -2 6 -9 14 -15 10 -9 16 -8 26 4 11 13 8 15 -14 15
-14 0 -26 -2 -26 -4z"/>
<path d="M15875 12840 c-3 -5 -2 -10 4 -10 5 0 13 5 16 10 3 6 2 10 -4 10 -5
0 -13 -4 -16 -10z"/>
<path d="M11451 12751 c-23 -19 -32 -33 -28 -45 14 -35 70 -1 80 50 6 32 -10
30 -52 -5z"/>
<path d="M22316 1441 c-31 -48 -56 -91 -56 -95 0 -3 27 -6 60 -6 l60 0 0 95
c0 52 -2 95 -4 95 -2 0 -29 -40 -60 -89z"/>
<path d="M23100 1573 c-20 -26 -21 -37 -18 -176 3 -142 4 -150 27 -168 30 -24
62 -24 92 0 23 19 24 23 24 174 0 138 -2 157 -19 176 -28 31 -79 28 -106 -6z"/>
<path d="M23571 1581 c-41 -41 -35 -157 9 -181 32 -17 70 -11 97 16 23 23 25
31 20 81 -9 90 -76 134 -126 84z"/>
<path d="M24860 1573 c-20 -26 -21 -37 -18 -176 3 -142 4 -150 27 -168 30 -24
62 -24 92 0 23 19 24 23 24 174 0 138 -2 157 -19 176 -28 31 -79 28 -106 -6z"/>
<path d="M27976 1441 c-31 -48 -56 -91 -56 -95 0 -3 27 -6 60 -6 l60 0 0 95
c0 52 -2 95 -4 95 -2 0 -29 -40 -60 -89z"/>
</g>
</svg>
